<!DOCTYPE svg PUBLIC "-//W3C//DTD SVG 1.1//EN" "http://www.w3.org/Graphics/SVG/1.1/DTD/svg11.dtd"><svg width="100%" height="100%" viewBox="0 0 1500 505" version="1.1" xmlns="http://www.w3.org/2000/svg" xmlns:xlink="http://www.w3.org/1999/xlink" xml:space="preserve" xmlns:serif="http://www.serif.com/" style="fill-rule:evenodd;clip-rule:evenodd;stroke-linecap:round;stroke-linejoin:round;stroke-miterlimit:1.5;"><rect id="COSY-logo" serif:id="COSY logo" x="-0" y="0.937" width="1500" height="499.909" style="fill:none;"/><g><g id="C-S-Y" serif:id="C S Y"><g><path d="M1458.33,84.224l0,65.908c0,73.798 -59.914,133.713 -133.712,133.713l-65.908,-0c-73.798,-0 -133.713,-59.915 -133.713,-133.713l-0,-65.908" style="fill:none;stroke:#1f283b;stroke-width:66.67px;"/><path d="M1291.67,292.557l-0,125" style="fill:none;stroke:#1f283b;stroke-width:66.67px;"/></g><g><path d="M1041.67,84.224l-116.288,0c-73.798,0 -133.712,37.341 -133.712,83.333c-0,45.993 42.489,83.334 116.287,83.334c73.798,-0 133.713,37.34 133.713,83.333c-0,45.993 -59.915,83.333 -133.713,83.333l-116.287,0" style="fill:none;stroke:#1f283b;stroke-width:66.67px;"/></g><path d="M291.667,84.224l-116.288,0c-73.798,0 -133.712,59.915 -133.712,133.713l-0,65.908c-0,73.798 59.914,133.712 133.712,133.712l116.288,0" style="fill:none;stroke:#1f283b;stroke-width:66.67px;"/></g><g id="CAT"><g><path d="M599.81,157.257l34.214,-68.426c1.411,-2.824 4.297,-4.607 7.453,-4.607c3.157,0 6.042,1.783 7.454,4.607c9.942,19.885 27.353,54.707 36.516,73.032c1.292,2.584 22.886,61.312 22.886,97.74l0,24.242c0,73.798 -59.914,133.712 -133.712,133.712l-65.908,0c-73.798,0 -133.713,-59.914 -133.713,-133.712l-0,-24.242c-0,-36.428 21.595,-95.156 22.886,-97.74c9.163,-18.325 26.574,-53.147 36.517,-73.032c1.411,-2.824 4.297,-4.607 7.453,-4.607c3.157,0 6.042,1.783 7.454,4.607l34.213,68.426l116.287,-0Z" style="fill:none;stroke:#1f283b;stroke-width:66.67px;"/><path d="M599.81,157.257l34.214,-68.426c1.411,-2.824 4.297,-4.607 7.453,-4.607c3.157,0 6.042,1.783 7.454,4.607c9.942,19.885 27.353,54.707 36.516,73.032c1.292,2.584 22.886,61.312 22.886,97.74l0,24.242c0,73.798 -59.914,133.712 -133.712,133.712l-65.908,0c-73.798,0 -133.713,-59.914 -133.713,-133.712l-0,-24.242c-0,-36.428 21.595,-95.156 22.886,-97.74c9.163,-18.325 26.574,-53.147 36.517,-73.032c1.411,-2.824 4.297,-4.607 7.453,-4.607c3.157,0 6.042,1.783 7.454,4.607l34.213,68.426l116.287,-0Z" style="fill:#f9a47d;"/></g><g><path d="M541.829,255.707c0,0 -43.527,54.892 -79.259,40.455c-21.322,-8.615 -31.639,-32.919 -23.024,-54.241c8.615,-21.322 32.919,-31.639 54.241,-23.024c35.733,14.437 48.042,36.81 48.042,36.81Z" style="fill:#1f283b;"/><clipPath id="_clip1"><path d="M541.829,255.707c0,0 -43.527,54.892 -79.259,40.455c-21.322,-8.615 -31.639,-32.919 -23.024,-54.241c8.615,-21.322 32.919,-31.639 54.241,-23.024c35.733,14.437 48.042,36.81 48.042,36.81Z"/></clipPath><g clip-path="url(#_clip1)"><ellipse cx="479.167" cy="257.219" rx="20.833" ry="12.5" style="fill:#fff;"/></g><path d="M541.829,255.707c0,0 -43.527,54.892 -79.259,40.455c-21.322,-8.615 -31.639,-32.919 -23.024,-54.241c8.615,-21.322 32.919,-31.639 54.241,-23.024c35.733,14.437 48.042,36.81 48.042,36.81Z" style="fill:none;stroke:#1f283b;stroke-width:16.67px;"/><path d="M541.504,255.707c-0,0 43.527,54.892 79.259,40.455c21.322,-8.615 31.639,-32.919 23.024,-54.241c-8.614,-21.322 -32.919,-31.639 -54.241,-23.024c-35.732,14.437 -48.042,36.81 -48.042,36.81Z" style="fill:#1f283b;"/><clipPath id="_clip2"><path d="M541.504,255.707c-0,0 43.527,54.892 79.259,40.455c21.322,-8.615 31.639,-32.919 23.024,-54.241c-8.614,-21.322 -32.919,-31.639 -54.241,-23.024c-35.732,14.437 -48.042,36.81 -48.042,36.81Z"/></clipPath><g clip-path="url(#_clip2)"><ellipse cx="604.167" cy="257.219" rx="20.833" ry="12.5" style="fill:#fff;"/></g><path d="M541.504,255.707c-0,0 43.527,54.892 79.259,40.455c21.322,-8.615 31.639,-32.919 23.024,-54.241c-8.614,-21.322 -32.919,-31.639 -54.241,-23.024c-35.732,14.437 -48.042,36.81 -48.042,36.81Z" style="fill:none;stroke:#1f283b;stroke-width:16.67px;"/></g><g><path d="M575,325.891c-0,9.198 -7.468,16.666 -16.667,16.666c-9.198,0 -16.666,-7.468 -16.666,-16.666" style="fill:none;stroke:#1f283b;stroke-width:8.33px;"/><path d="M541.667,325.891c-0,9.198 -7.468,16.666 -16.667,16.666c-9.199,0 -16.667,-7.468 -16.667,-16.666" style="fill:none;stroke:#1f283b;stroke-width:8.33px;"/></g></g></g></svg>
