<?xml version="1.0" encoding="UTF-8" standalone="no"?>
<!DOCTYPE svg PUBLIC "-//W3C//DTD SVG 1.1//EN" "http://www.w3.org/Graphics/SVG/1.1/DTD/svg11.dtd">
<svg width="100%" height="100%" viewBox="0 0 360 120" version="1.1" xmlns="http://www.w3.org/2000/svg" xmlns:xlink="http://www.w3.org/1999/xlink" xml:space="preserve" xmlns:serif="http://www.serif.com/" style="fill-rule:evenodd;clip-rule:evenodd;stroke-linecap:round;stroke-linejoin:round;stroke-miterlimit:1.5;">
    <g transform="matrix(1,0,0,1,-927,-260.012)">
        <g id="COSY-logo" serif:id="COSY logo" transform="matrix(1,0,0,0.59989,-0.316074,260.012)">
            <rect x="927.316" y="0" width="360" height="200" style="fill:none;"/>
            <g transform="matrix(1.125,0,0,1.66697,927.316,-66.6972)">
                <g id="C-S-Y" serif:id="C S Y">
                    <g>
                        <g transform="matrix(0.888889,0,0,-1,151.111,167.909)">
                            <path d="M180,107.909L180,92.091C180,74.379 165.621,60 147.909,60L132.091,60C114.379,60 100,74.379 100,92.091L100,107.909" style="fill:none;stroke:rgb(31,40,59);stroke-width:16px;"/>
                        </g>
                        <g transform="matrix(0.888889,0,0,1,0,0)">
                            <path d="M310,110L310,140" style="fill:none;stroke:rgb(31,40,59);stroke-width:16px;"/>
                        </g>
                    </g>
                    <g transform="matrix(0.888889,0,0,0.623228,80,22.6063)">
                        <path d="M160,60L132.091,60C114.379,60 100,74.379 100,92.091C100,109.803 110.197,124.182 127.909,124.182C145.621,124.182 160,138.562 160,156.273C160,173.985 145.621,188.364 127.909,188.364L100,188.364" style="fill:none;stroke:rgb(31,40,59);stroke-width:19.2px;"/>
                    </g>
                    <g transform="matrix(0.888889,0,0,1,-80,0)">
                        <path d="M160,60L132.091,60C114.379,60 100,74.379 100,92.091L100,107.909C100,125.621 114.379,140 132.091,140L160,140" style="fill:none;stroke:rgb(31,40,59);stroke-width:16px;"/>
                    </g>
                </g>
                <g id="CAT">
                    <g transform="matrix(0.888889,0,0,1,0,0)">
                        <path d="M143.954,77.528L152.166,61.106C152.504,60.428 153.197,60 153.954,60C154.712,60 155.405,60.428 155.743,61.106C158.13,65.878 162.308,74.235 164.507,78.633C164.817,79.253 170,93.348 170,102.091L170,107.909C170,125.621 155.621,140 137.909,140L122.091,140C104.379,140 90,125.621 90,107.909L90,102.091C90,93.348 95.183,79.253 95.493,78.633C97.692,74.235 101.87,65.878 104.257,61.106C104.595,60.428 105.288,60 106.046,60C106.803,60 107.496,60.428 107.834,61.106L116.046,77.528L143.954,77.528Z" style="fill:none;stroke:rgb(31,40,59);stroke-width:16px;"/>
                        <path d="M143.954,77.528L152.166,61.106C152.504,60.428 153.197,60 153.954,60C154.712,60 155.405,60.428 155.743,61.106C158.13,65.878 162.308,74.235 164.507,78.633C164.817,79.253 170,93.348 170,102.091L170,107.909C170,125.621 155.621,140 137.909,140L122.091,140C104.379,140 90,125.621 90,107.909L90,102.091C90,93.348 95.183,79.253 95.493,78.633C97.692,74.235 101.87,65.878 104.257,61.106C104.595,60.428 105.288,60 106.046,60C106.803,60 107.496,60.428 107.834,61.106L116.046,77.528L143.954,77.528Z" style="fill:rgb(249,164,125);"/>
                    </g>
                    <g transform="matrix(1,0,0,1,17.8125,79.3446)">
                        <g transform="matrix(0.305263,-0.849996,-0.765336,-0.347868,85.6683,146.841)">
                            <path d="M132.02,36.835C132.02,36.835 114.427,41.951 114.427,51.911C114.427,57.855 119.315,62.68 125.335,62.68C131.356,62.68 136.243,57.855 136.243,51.911C136.243,41.951 132.02,36.835 132.02,36.835Z" style="fill:rgb(31,40,59);"/>
                            <clipPath id="_clip1">
                                <path d="M132.02,36.835C132.02,36.835 114.427,41.951 114.427,51.911C114.427,57.855 119.315,62.68 125.335,62.68C131.356,62.68 136.243,57.855 136.243,51.911C136.243,41.951 132.02,36.835 132.02,36.835Z"/>
                            </clipPath>
                            <g clip-path="url(#_clip1)">
                                <g transform="matrix(0.408624,-0.998452,-0.829613,-0.330901,163.013,200.229)">
                                    <ellipse cx="115" cy="101.851" rx="5" ry="3.657" style="fill:white;"/>
                                </g>
                            </g>
                            <path d="M132.02,36.835C132.02,36.835 114.427,41.951 114.427,51.911C114.427,57.855 119.315,62.68 125.335,62.68C131.356,62.68 136.243,57.855 136.243,51.911C136.243,41.951 132.02,36.835 132.02,36.835Z" style="fill:none;stroke:rgb(31,40,59);stroke-width:4.34px;"/>
                        </g>
                        <g transform="matrix(-0.305263,-0.849996,0.765336,-0.347868,109.818,146.841)">
                            <path d="M132.02,36.835C132.02,36.835 114.427,41.951 114.427,51.911C114.427,57.855 119.315,62.68 125.335,62.68C131.356,62.68 136.243,57.855 136.243,51.911C136.243,41.951 132.02,36.835 132.02,36.835Z" style="fill:rgb(31,40,59);"/>
                            <clipPath id="_clip2">
                                <path d="M132.02,36.835C132.02,36.835 114.427,41.951 114.427,51.911C114.427,57.855 119.315,62.68 125.335,62.68C131.356,62.68 136.243,57.855 136.243,51.911C136.243,41.951 132.02,36.835 132.02,36.835Z"/>
                            </clipPath>
                            <g clip-path="url(#_clip2)">
                                <g transform="matrix(0.408624,-0.998452,-0.829613,-0.330901,163.013,200.229)">
                                    <ellipse cx="115" cy="101.851" rx="5" ry="3.657" style="fill:white;"/>
                                </g>
                            </g>
                            <path d="M132.02,36.835C132.02,36.835 114.427,41.951 114.427,51.911C114.427,57.855 119.315,62.68 125.335,62.68C131.356,62.68 136.243,57.855 136.243,51.911C136.243,41.951 132.02,36.835 132.02,36.835Z" style="fill:none;stroke:rgb(31,40,59);stroke-width:4.34px;"/>
                        </g>
                    </g>
                    <g transform="matrix(1,0,0,1,-2.94034,-3.70418)">
                        <g transform="matrix(1.21001,0,0,1.38008,-44.8472,-44.7367)">
                            <path d="M140.87,120.603C140.87,122.202 139.553,123.501 137.931,123.501C136.309,123.501 134.993,122.202 134.993,120.603" style="fill:none;stroke:rgb(31,40,59);stroke-width:1.46px;"/>
                        </g>
                        <g transform="matrix(1.21001,0,0,1.38008,-51.9583,-44.7367)">
                            <path d="M140.87,120.603C140.87,122.202 139.553,123.501 137.931,123.501C136.309,123.501 134.993,122.202 134.993,120.603" style="fill:none;stroke:rgb(31,40,59);stroke-width:1.46px;"/>
                        </g>
                    </g>
                </g>
            </g>
            <g transform="matrix(1.125,0,0,1.66697,927.316,-66.6789)">
                <g>
                    <g transform="matrix(0.888889,0,0,-1,151.111,167.909)">
                        <path d="M180,107.909L180,92.091C180,74.379 165.621,60 147.909,60L132.091,60C114.379,60 100,74.379 100,92.091L100,107.909" style="fill:none;stroke:rgb(31,40,59);stroke-width:16px;"/>
                    </g>
                    <g transform="matrix(0.888889,0,0,1,0,0)">
                        <path d="M310,110L310,140" style="fill:none;stroke:rgb(31,40,59);stroke-width:16px;"/>
                    </g>
                </g>
                <g transform="matrix(0.888889,0,0,0.623228,80,22.6063)">
                    <path d="M160,60L132.091,60C114.379,60 100,74.379 100,92.091C100,109.803 110.197,124.182 127.909,124.182C145.621,124.182 160,138.562 160,156.273C160,173.985 145.621,188.364 127.909,188.364L100,188.364" style="fill:none;stroke:rgb(31,40,59);stroke-width:19.2px;"/>
                </g>
                <g>
                    <g transform="matrix(0.888889,0,0,1,0,0)">
                        <path d="M145,68.315L155.211,51.893C155.55,51.215 156.242,50.787 157,50.787C157.758,50.787 158.45,51.215 158.789,51.893C161.175,56.665 172,93.348 172,102.091L172,107.909C172,125.621 155.621,140 137.909,140L122.091,140C104.379,140 88,125.621 88,107.909L88,102.091C88,93.348 98.914,56.665 101.3,51.893C101.639,51.215 102.331,50.787 103.089,50.787C103.846,50.787 104.539,51.215 104.878,51.893L115.1,68.315L145,68.315Z" style="fill:none;stroke:rgb(31,40,59);stroke-width:16px;"/>
                        <path d="M145,68.315L155.211,51.893C155.55,51.215 156.242,50.787 157,50.787C157.758,50.787 158.45,51.215 158.789,51.893C161.175,56.665 172,93.348 172,102.091L172,107.909C172,125.621 155.621,140 137.909,140L122.091,140C104.379,140 88,125.621 88,107.909L88,102.091C88,93.348 98.914,56.665 101.3,51.893C101.639,51.215 102.331,50.787 103.089,50.787C103.846,50.787 104.539,51.215 104.878,51.893L115.1,68.315L145,68.315Z" style="fill:rgb(245,109,47);"/>
                    </g>
                    <g transform="matrix(1.13254,0,0,1.13254,4.85749,73.6442)">
                        <g transform="matrix(0.336922,-0.938151,-0.844711,-0.383946,84.3776,158.741)">
                            <path d="M132.02,36.835C132.02,36.835 114.427,41.951 114.427,51.911C114.427,57.855 119.315,62.68 125.335,62.68C131.356,62.68 136.243,57.855 136.243,51.911C136.243,41.951 132.02,36.835 132.02,36.835Z" style="fill:rgb(31,40,59);"/>
                            <clipPath id="_clip3">
                                <path d="M132.02,36.835C132.02,36.835 114.427,41.951 114.427,51.911C114.427,57.855 119.315,62.68 125.335,62.68C131.356,62.68 136.243,57.855 136.243,51.911C136.243,41.951 132.02,36.835 132.02,36.835Z"/>
                            </clipPath>
                            <g clip-path="url(#_clip3)">
                                <g transform="matrix(0.408624,-0.998452,-0.829613,-0.330901,163.491,199.061)">
                                    <ellipse cx="115" cy="101.851" rx="5" ry="3.657" style="fill:white;"/>
                                </g>
                            </g>
                            <path d="M132.02,36.835C132.02,36.835 114.427,41.951 114.427,51.911C114.427,57.855 119.315,62.68 125.335,62.68C131.356,62.68 136.243,57.855 136.243,51.911C136.243,41.951 132.02,36.835 132.02,36.835Z" style="fill:none;stroke:rgb(31,40,59);stroke-width:3.47px;"/>
                        </g>
                        <g transform="matrix(-0.336922,-0.938151,0.844711,-0.383946,111.108,158.741)">
                            <path d="M132.02,36.835C132.02,36.835 114.427,41.951 114.427,51.911C114.427,57.855 119.315,62.68 125.335,62.68C131.356,62.68 136.243,57.855 136.243,51.911C136.243,41.951 132.02,36.835 132.02,36.835Z" style="fill:rgb(31,40,59);"/>
                            <clipPath id="_clip4">
                                <path d="M132.02,36.835C132.02,36.835 114.427,41.951 114.427,51.911C114.427,57.855 119.315,62.68 125.335,62.68C131.356,62.68 136.243,57.855 136.243,51.911C136.243,41.951 132.02,36.835 132.02,36.835Z"/>
                            </clipPath>
                            <g clip-path="url(#_clip4)">
                                <g transform="matrix(0.408624,-0.998452,-0.829613,-0.330901,163.491,199.061)">
                                    <ellipse cx="115" cy="101.851" rx="5" ry="3.657" style="fill:white;"/>
                                </g>
                            </g>
                            <path d="M132.02,36.835C132.02,36.835 114.427,41.951 114.427,51.911C114.427,57.855 119.315,62.68 125.335,62.68C131.356,62.68 136.243,57.855 136.243,51.911C136.243,41.951 132.02,36.835 132.02,36.835Z" style="fill:none;stroke:rgb(31,40,59);stroke-width:3.47px;"/>
                        </g>
                    </g>
                    <g transform="matrix(1.25,0,0,1.25,-32.5643,-37.1302)">
                        <g transform="matrix(1.21001,0,0,1.38008,-44.8472,-42.7367)">
                            <path d="M140.87,120.603C140.87,122.202 139.553,123.501 137.931,123.501C136.309,123.501 134.993,122.202 134.993,120.603" style="fill:none;stroke:rgb(31,40,59);stroke-width:1.75px;"/>
                        </g>
                        <g transform="matrix(1.21001,0,0,1.38008,-51.9583,-42.7367)">
                            <path d="M140.87,120.603C140.87,122.202 139.553,123.501 137.931,123.501C136.309,123.501 134.993,122.202 134.993,120.603" style="fill:none;stroke:rgb(31,40,59);stroke-width:1.75px;"/>
                        </g>
                    </g>
                </g>
                <g transform="matrix(0.888889,0,0,1,-80,0)">
                    <path d="M160,60L132.091,60C114.379,60 100,74.379 100,92.091L100,107.909C100,125.621 114.379,140 132.091,140L160,140" style="fill:none;stroke:rgb(31,40,59);stroke-width:16px;"/>
                </g>
            </g>
        </g>
    </g>
</svg>
